<?xml version="1.0" encoding="UTF-8" standalone="no" ?>
<!DOCTYPE svg PUBLIC "-//W3C//DTD SVG 1.1//EN" "http://www.w3.org/Graphics/SVG/1.1/DTD/svg11.dtd">
<svg xmlns="http://www.w3.org/2000/svg" xmlns:xlink="http://www.w3.org/1999/xlink" version="1.1" width="1024" height="768" viewBox="0 0 1024 768" xml:space="preserve">
<desc>Created with Fabric.js 5.3.0</desc>
<defs>
</defs>
<g transform="matrix(1 0 0 1 512 242.8152103013)" id="cM-ruBWLRoa3p4KI1FrdL"  >
<path style="stroke: rgb(112,62,155); stroke-width: 0; stroke-dasharray: none; stroke-linecap: butt; stroke-dashoffset: 0; stroke-linejoin: miter; stroke-miterlimit: 4; fill: rgb(247,47,58); fill-rule: nonzero; opacity: 1;" vector-effect="non-scaling-stroke"  transform=" translate(-32.97055, -32.97055)" d="M 32.97055 0 C 51.170300000000005 0 65.9411 14.77081 65.9411 32.97055 C 65.9411 51.170300000000005 51.17029000000001 65.9411 32.97055 65.9411 C 14.770800000000001 65.9411 0 51.17029000000001 0 32.97055 C 0 14.770800000000001 14.77081 0 32.97055 0 z" stroke-linecap="round" />
</g>
<g transform="matrix(1 0 0 1 511.9999998735 330.1737008673)" id="36JviiNSPRU6QD875RGAK"  >
<path style="stroke: rgb(112,62,155); stroke-width: 0; stroke-dasharray: none; stroke-linecap: butt; stroke-dashoffset: 0; stroke-linejoin: miter; stroke-miterlimit: 4; fill: rgb(255,243,18); fill-rule: nonzero; opacity: 1;" vector-effect="non-scaling-stroke"  transform=" translate(-32.97055, -32.97055)" d="M 32.97055 0 C 51.170300000000005 0 65.9411 14.77081 65.9411 32.97055 C 65.9411 51.170300000000005 51.17029000000001 65.9411 32.97055 65.9411 C 14.770800000000001 65.9411 0 51.17029000000001 0 32.97055 C 0 14.770800000000001 14.77081 0 32.97055 0 z" stroke-linecap="round" />
</g>
<g transform="matrix(1 0 0 1 511.9999998735 416.97055)" id="BNQz8yoJSwPPmSPqaJQw2"  >
<path style="stroke: rgb(112,62,155); stroke-width: 0; stroke-dasharray: none; stroke-linecap: butt; stroke-dashoffset: 0; stroke-linejoin: miter; stroke-miterlimit: 4; fill: rgb(53,237,53); fill-rule: nonzero; opacity: 1;" vector-effect="non-scaling-stroke"  transform=" translate(-32.97055, -32.97055)" d="M 32.97055 0 C 51.170300000000005 0 65.9411 14.77081 65.9411 32.97055 C 65.9411 51.170300000000005 51.17029000000001 65.9411 32.97055 65.9411 C 14.770800000000001 65.9411 0 51.17029000000001 0 32.97055 C 0 14.770800000000001 14.77081 0 32.97055 0 z" stroke-linecap="round" />
</g>
</svg>